<?xml version="1.0" encoding="UTF-8"?>
<svg id="Capa_2" data-name="Capa 2" xmlns="http://www.w3.org/2000/svg" viewBox="0 0 655.68 253">
  <defs>
    <style>
      .cls-1 {
        fill: #ccafff;
      }

      .cls-2 {
        fill: #f2f2f2;
      }
    </style>
  </defs>
  <g id="Capa_1-2" data-name="Capa 1">
    <g>
      <g>
        <path class="cls-1" d="M63.23,50.64c3.55,0,6.77,3.22,6.78,7.1,0,3.22-3.23,6.77-6.78,6.77-27.42,0-49.36,21.94-49.36,49.36v77.75c0,3.87-3.23,6.77-7.1,6.77s-6.77-3.22-6.77-6.77v-77.75c0-34.85,28.39-63.23,63.23-63.23Z"/>
        <path class="cls-1" d="M94.71,12.26c5.16,0,9.67,4.19,9.67,9.99,0,5.49-4.51,9.68-9.67,9.68-5.49,0-9.68-4.2-9.68-9.68,0-5.8,4.2-9.99,9.68-9.99ZM94.71,50.64c3.87,0,6.77,3.22,6.77,7.1v133.54c0,3.88-2.9,7.1-6.77,7.1s-6.77-3.23-6.77-7.1V57.73c0-3.87,2.9-7.09,6.77-7.09Z"/>
        <path class="cls-1" d="M231.51,50.64c3.87,0,6.77,3.22,6.77,7.09,0,3.22-2.9,6.77-6.77,6.77h-66.78c-29.35,0-36.13,30.01-7.74,41.3l63.88,25.49c23.55,9.02,30.97,27.42,26.13,42.57-3.87,13.54-18.06,24.51-39.04,24.51h-70.64c-3.88,0-6.78-2.9-6.78-6.77,0-3.55,2.91-6.78,6.78-6.78h71.62c28.7,0,36.77-29.67,7.74-41.61l-63.88-25.16c-23.54-9.02-30.96-27.75-26.13-42.9,4.2-13.54,18.07-24.51,39.03-24.51h65.8Z"/>
        <path class="cls-1" d="M306.43,20.32v87.74l51.29-50.97c4.19-4.52,9.67-6.45,14.51-6.45,5.17,0,10.32,1.94,14.19,5.82,7.75,8.06,7.75,20.97,0,29.03l-29.35,29.36,34.19,52.26c6.77,9.67,3.87,21.94-5.17,28.38-3.22,2.25-7.09,2.9-10.96,2.9-6.45,0-13.24-2.9-17.42-9.02l-30-45.17-21.29,21.29v12.91c0,10.97-8.71,20-20,20s-20.01-9.02-20.01-20V20.32c0-11.61,9.04-20.32,20.01-20.32s20,8.72,20,20.32h.01Z"/>
        <path class="cls-1" d="M474.06,50.64c40.64,0,73.55,33.23,73.54,73.86,0,18.72,15.16,33.88,33.55,33.88s33.22-15.17,33.22-33.88-14.84-33.54-33.22-33.54c-8.72,0-16.79,3.87-22.26,9.02-4.2-13.54-11.29-26.12-20.64-35.8,12.27-8.69,26.78-13.54,42.92-13.54,40.65,0,74.2,33.23,74.2,73.87s-33.56,73.87-74.2,73.87-73.87-32.89-73.87-73.87c0-18.38-14.85-33.54-33.23-33.54s-33.23,15.16-33.23,33.54,14.51,33.88,33.23,33.88c8.7,0,16.76-3.87,22.58-9.04,3.87,13.55,10.65,25.49,20,35.49-11.94,8.7-26.45,13.53-42.57,13.53-40.65,0-73.87-32.89-73.87-73.87s33.22-73.87,73.87-73.87Z"/>
      </g>
      <g>
        <path class="cls-2" d="M.49,229.97h5.63v17.83h10.21v4.84H.49v-22.68Z"/>
        <path class="cls-2" d="M33.68,241.35c.07-7.25,5.67-11.72,12.06-11.72s11.85,4.64,11.82,11.72c-.07,6.87-5.22,11.65-11.85,11.65s-12.1-4.6-12.03-11.65ZM45.7,248.15c3.64,0,6.19-2.78,6.22-6.8-.03-4.12-2.61-6.87-6.22-6.87s-6.39,2.75-6.39,6.87c.03,3.99,2.75,6.8,6.39,6.8Z"/>
        <path class="cls-2" d="M81.43,234.82h-6.6v-4.84h18.86v4.84h-6.63l-.03,17.83h-5.6v-17.83Z"/>
        <path class="cls-2" d="M138.52,245.19h5.15c.24,2.44,2.34,3.44,3.95,3.47,1.75.03,3.47-.72,3.51-2.51.03-1.89-1.68-2.44-4.16-2.78-4.98-.58-8.76-2.65-8.73-7.08.03-4.23,4.05-6.67,8.52-6.67s8.9,2.75,9.11,7.56h-5.15c-.24-2.37-1.99-3.23-3.95-3.23-1.72,0-3.16,1-3.16,2.44s1.2,2.23,3.99,2.65c5.74.79,9.07,2.85,8.93,7.59-.17,4.5-4.6,6.46-9.04,6.36-4.57-.1-8.69-2.92-8.97-7.8Z"/>
        <path class="cls-2" d="M175.32,229.97h5.36v22.68h-5.36v-22.68Z"/>
        <path class="cls-2" d="M199.98,248.08l10.27-13.26h-10.65v-4.84h16.91v4.54l-10.24,13.3h10.24v4.84h-16.53v-4.57Z"/>
        <path class="cls-2" d="M235.47,229.97h16.42v5.6h-10.79v3.26h9.41v4.84h-9.41v3.3h10.75v5.63h-16.39v-22.64Z"/>
        <path class="cls-2" d="M296.92,241.31c.03-6.84,5.22-11.68,11.68-11.68,4.19,0,7.77,1.96,9.79,5.46l-2.75,1.37c-1.51-2.51-4.09-4.02-7.01-4.02-4.5,0-8.49,3.57-8.49,8.86.03,5.15,3.88,8.83,8.42,8.83,3.02,0,5.7-1.58,7.18-4.26l2.82,1.31c-1.96,3.64-5.63,5.81-10,5.81-6.43,0-11.68-4.81-11.65-11.68Z"/>
        <path class="cls-2" d="M346.12,229.97h3.13l10.14,22.68h-3.4l-3.3-7.35-9.93-.03-3.26,7.39h-3.4l10.03-22.68ZM351.55,242.72l-3.85-8.62-3.81,8.62h7.66Z"/>
        <path class="cls-2" d="M379.1,229.97h3.23v19.83h11.82v2.85h-15.05v-22.68Z"/>
        <path class="cls-2" d="M411.22,241.31c.03-6.84,5.22-11.68,11.68-11.68,4.19,0,7.77,1.96,9.79,5.46l-2.75,1.37c-1.51-2.51-4.09-4.02-7.01-4.02-4.5,0-8.49,3.57-8.49,8.86.03,5.15,3.88,8.83,8.42,8.83,3.02,0,5.7-1.58,7.18-4.26l2.82,1.31c-1.96,3.64-5.64,5.81-10,5.81-6.43,0-11.68-4.81-11.65-11.68Z"/>
        <path class="cls-2" d="M452.58,244.09v-14.12h3.23v13.88c0,3.64,2.03,6.29,5.91,6.29s5.81-2.65,5.81-6.29v-13.88h3.23v14.12c0,5.29-3.54,8.9-9.07,8.9s-9.11-3.54-9.11-8.9Z"/>
        <path class="cls-2" d="M490.47,229.97h3.23v19.83h11.82v2.85h-15.05v-22.68Z"/>
        <path class="cls-2" d="M535.24,229.97h3.13l10.14,22.68h-3.4l-3.3-7.35-9.93-.03-3.26,7.39h-3.4l10.03-22.68ZM540.66,242.72l-3.85-8.62-3.81,8.62h7.66Z"/>
        <path class="cls-2" d="M568.56,232.82l-7.25-.03v-2.82h17.77v2.82l-7.28.03-.07,19.83h-3.23l.07-19.83Z"/>
        <path class="cls-2" d="M595.93,241.41c.03-6.87,5.29-11.79,11.79-11.79s11.65,4.98,11.61,11.79c0,6.67-5.12,11.58-11.65,11.58s-11.79-4.81-11.75-11.58ZM607.69,250.14c4.6,0,8.35-3.71,8.38-8.73.03-5.36-3.78-8.93-8.31-8.93s-8.56,3.61-8.56,8.93c.03,4.98,3.92,8.73,8.49,8.73Z"/>
        <path class="cls-2" d="M639.05,229.97h8.56c6.56,0,8.07,3.81,8.07,6.94s-1.41,6.12-5.81,6.53l-1.51.03,5.88,9.17h-3.64l-5.77-9.17h-2.54v9.17h-3.23v-22.68ZM647.6,240.73c3.16,0,4.84-1.17,4.84-3.81,0-2.16-1.2-4.12-4.88-4.12h-5.29v7.94h5.33Z"/>
      </g>
    </g>
  </g>
</svg>